<?xml version="1.0" encoding="utf-8"?>
<!-- Generator: Adobe Illustrator 16.0.0, SVG Export Plug-In . SVG Version: 6.00 Build 0)  -->
<!DOCTYPE svg PUBLIC "-//W3C//DTD SVG 1.1//EN" "http://www.w3.org/Graphics/SVG/1.1/DTD/svg11.dtd">
<svg version="1.1" id="Layer_1" xmlns="http://www.w3.org/2000/svg" xmlns:xlink="http://www.w3.org/1999/xlink" x="0px" y="0px"
	 width="727.65px" height="205.658px" viewBox="261.855 37.856 727.65 205.658"
	 enable-background="new 261.855 37.856 727.65 205.658" xml:space="preserve">
<g>
	<path fill="#FFFFFF" d="M268.247,223.713c0.2-0.2,6.7-0.301,6.9-0.5c0.2-0.2,0.4-30.302,1-39.803c0-0.5-6,0.1-6.2,0
		c-0.2-0.103-1.3-15.104-0.3-15.701c0.6-0.3,33.602,0.6,33.602,0.7c0,0.1,0.7,14.601,0.1,14.801s-8.201,1.1-8.201,1.1
		c-1,7.201-1.6,38.802-1.5,38.802s10.201-0.197,10.301-0.396c0.1-0.2,3.4-12.501,3.4-12.901c0-0.397,13.001,1.5,13.301,1.7
		c0.3,0.2,0.6,27.002,0.3,27.002c-0.3,0-52.503,0.899-52.503-0.2C268.447,237.217,268.047,223.913,268.247,223.713z"/>
	<path d="M285.303,241.86c-5.147,0-9.189-0.04-12.015-0.115c-5.056-0.143-7.841-0.221-7.841-3.432c0-0.285-0.028-1.412-0.065-2.917
		c-0.313-12.754-0.313-12.754,0.749-13.81c0.917-0.918,1.431-0.941,5.438-1.121c0.212-0.01,0.447-0.021,0.689-0.031
		c0.048-2.146,0.102-5.413,0.155-8.605c0.135-8.195,0.312-18.969,0.586-25.558c-0.437,0.023-0.874,0.049-1.272,0.073
		c-0.737,0.045-1.342,0.078-1.627,0.078c-0.229,0-0.839,0-1.497-0.33c-1.61-0.805-1.9-0.95-2.294-11.201
		c-0.269-6.976,0.05-8.708,1.795-9.755l0.203-0.111c0.728-0.359,1.295-0.377,3.361-0.377c3.13,0,10.082,0.131,18.594,0.353
		c3.5,0.09,6.772,0.183,9.17,0.258c1.207,0.038,2.193,0.072,2.877,0.099c0.966,0.038,3.888,0.153,3.94,2.979l0.01,0.223
		c0.137,3.07,0.234,5.769,0.287,8.014c0.159,6.661,0.207,8.674-2.249,9.489c-0.275,0.092-0.764,0.254-6.415,0.946
		c-0.652,7.781-1.089,25.934-1.209,33.042c1.635-0.042,3.568-0.098,4.957-0.156c0.904-3.318,2.612-9.78,2.76-10.542
		c-0.045,0.234-0.039,0.396-0.039,0.465c0-1.228,0.886-3.055,3.328-3.055c0.112,0,13.104,1.237,14.636,2.259
		c1.539,1.025,1.539,1.025,1.708,15.688c0.156,13.533-0.041,14.184-0.185,14.658l-0.645,2.131l-2.818,0.032
		C306.648,241.741,294.193,241.86,285.303,241.86z M271.39,235.672c2.044,0.094,6.054,0.188,13.913,0.188
		c8.38,0,19.948-0.104,32.764-0.302c0.041-5.203-0.092-16.755-0.252-21.521c-2.271-0.357-5.835-0.854-8.134-1.111
		c-1.063,4.211-3.021,11.074-3.048,11.128c-0.836,1.664-1.034,2.058-12.984,2.058h-1.366l-0.897-1.027
		c-0.927-1.064-0.927-1.064-0.396-18.81c0.24-8.03,0.641-18.436,1.188-22.377l0.319-2.294l2.3-0.271
		c2.027-0.24,4.232-0.518,5.793-0.727c0.016-1.526-0.019-4.311-0.22-9.314c-6.2-0.203-21.74-0.616-28.136-0.644
		c-0.034,2.533,0.181,6.849,0.389,9.635c0.759-0.041,1.544-0.073,2.211-0.073c3.754,0,4.315,2.006,4.315,3.202l-0.006,0.188
		c-0.356,5.635-0.572,18.75-0.729,28.325c-0.205,12.47-0.205,12.47-1.141,13.407c-0.93,0.926-1.443,0.949-5.434,1.128
		c-0.198,0.009-0.415,0.019-0.639,0.029c0.031,2.62,0.13,6.662,0.181,8.761C271.383,235.394,271.387,235.535,271.39,235.672z
		 M310.349,209.813c0,0.16-0.06,0.508-0.164,0.994C310.29,210.507,310.349,210.175,310.349,209.813z"/>
</g>
<g>
	<path fill="#FFFFFF" d="M327.347,225.513l8.604-0.397l0.1-20.304c-0.2-0.2-7.8,0.3-8,0.3c-0.1,0-1.6-13.101-1.6-13.601
		s21.102-1.5,27.902,0.1v33.202l8.201,1.303l0.2,12.001c-0.5,0.5-34.802,0.197-34.702,0.197
		C328.046,238.314,327.247,231.914,327.347,225.513z M333.747,171.91c-0.1-6.4,4.5-10.4,9.8-10.4c5.4,0,10.401,4.6,10.401,9.9
		c0,5.397-2.5,10.698-9.301,10.698C337.747,182.11,333.947,178.21,333.747,171.91z"/>
	<path d="M347.513,241.403c-4.667,0-9.54-0.021-13.247-0.044l-4.512-0.028c-1.936-0.018-4.568-0.035-4.703-2.791
		c-0.123-1.033-0.799-7-0.704-13.071l0.044-2.819l8.57-0.396l0.07-14.407c-1.451,0.068-3.083,0.165-3.985,0.218
		c-0.578,0.034-0.954,0.054-1,0.054c-2.683,0-2.967-2.273-3.269-4.684c-0.155-1.243-0.354-2.906-0.548-4.584
		c-0.52-4.473-0.783-6.938-0.783-7.334c0-2.81,2.88-3.114,3.965-3.229c0.873-0.095,2.092-0.186,3.526-0.266
		c3.182-0.177,6.983-0.275,10.428-0.275c6.391,0,10.99,0.317,13.67,0.947l2.313,0.544v33.019l8.158,1.293l0.263,15.792l-0.9,0.896
		C363.746,241.359,363.702,241.403,347.513,241.403z M330.755,235.335c3.612,0.023,10.34,0.065,16.757,0.065
		c6.555,0,10.186-0.045,12.189-0.094l-0.11-6.627l-8.243-1.307v-33.216c-2.402-0.272-5.83-0.418-9.983-0.418
		c-4.646,0-9.01,0.183-11.637,0.362c0.258,2.32,0.637,5.596,0.913,7.854c1.688-0.095,3.692-0.193,4.757-0.193
		c0.735,0,1.847,0,2.773,0.929l0.882,0.887l-0.12,24.396l-8.576,0.399C330.417,231.057,330.597,233.562,330.755,235.335z
		 M344.647,185.11c-8.317,0-13.643-5.021-13.899-13.104c-0.06-3.83,1.249-7.274,3.685-9.749c2.379-2.417,5.616-3.747,9.114-3.747
		c7.139,0,13.401,6.028,13.401,12.9C356.948,179.732,352.12,185.11,344.647,185.11z M343.547,164.509
		c-1.878,0-3.597,0.695-4.839,1.957c-1.318,1.338-1.996,3.205-1.962,5.397c0.152,4.793,2.811,7.245,7.901,7.245
		c5.208,0,6.301-4.188,6.301-7.698C350.948,167.865,347.352,164.509,343.547,164.509z"/>
</g>
<g>
	<path fill="#FFFFFF" d="M368.946,220.115c4.5-0.803,11.101-0.7,12.397-0.5c1.2,3.8,4,5.801,6.104,5.801c2,0,3.7-0.9,3.7-2.604
		c0-3.197-4.3-4.197-8.301-6c-6-2.6-12.899-6.397-12.899-16.801c0-7,6.5-14.001,18.201-14.001c5.1,0,8.2,1.6,9.7,2.9l0.6-3.5
		c0,0,10-0.303,14.301,1.197c0.4,0.2-1,16.001-1,17.804c0,0.8-13.701-0.2-13.701-0.5c-0.3-3.2-3.1-4.4-5.2-4.4
		c-1.2,0-3.1,0.3-3.1,2.5c0,2,5.6,3.5,10.5,5.9c6,2.8,12.5,8.5,12.5,17.398c0,8.104-7.7,14.304-16.501,14.304
		c-9,0-11.701-2.103-13-3.303c-0.2,1.603-0.4,4.104-0.5,4.104c-0.4-0.104-13.601-1.104-13.601-1.104
		C368.946,237.814,368.946,223.013,368.946,220.115z"/>
	<path d="M382.747,243.415l-0.569-0.05c-1.205-0.134-8.668-0.714-13.258-1.063l-2.426-0.184l-0.321-2.412
		c-0.056-0.42-0.226-1.697-0.226-19.6v-2.514l2.475-0.438c2.436-0.436,5.248-0.599,7.292-0.656
		c-4.348-2.859-8.767-7.702-8.767-16.492c0-8.242,7.431-17.001,21.201-17.001c3.125,0,5.579,0.526,7.458,1.222l0.299-1.747
		l2.453-0.071c0,0,0.851-0.026,2.171-0.026c4.205,0,9.909,0.242,13.208,1.392l0.354,0.149c1.939,0.969,1.851,2.454,1.59,6.862
		c-0.136,2.295-0.352,5.22-0.542,7.806c-0.182,2.473-0.389,5.276-0.389,5.816c0,3.303-3.598,3.303-5.531,3.304
		c-0.948,0-2.13-0.033-3.424-0.092c6.298,4.328,9.955,10.69,9.955,17.688c0,9.54-8.748,17.301-19.501,17.301
		c-4.955,0-8.292-0.606-10.641-1.464C385.23,242.452,384.483,243.415,382.747,243.415z M372.04,236.525
		c3.892,0.301,6.428,0.499,8.092,0.64c0.045-0.43,0.092-0.851,0.139-1.224l0.725-5.791l4.287,3.959
		c0.742,0.688,2.712,2.504,10.965,2.504c7.444,0,13.501-5.066,13.501-11.301c0-8.716-7.531-13.171-10.769-14.682
		c-1.419-0.695-2.861-1.297-4.255-1.879c-4.457-1.862-7.977-3.333-7.977-6.74c0-2.537,1.598-5.5,6.1-5.5
		c3.036,0,6.254,1.615,7.589,4.727c2.12,0.202,5.82,0.456,8.459,0.479c0.066-0.949,0.153-2.131,0.258-3.563
		c0.201-2.717,0.499-6.764,0.618-9.182c-2.131-0.359-5.219-0.569-8.791-0.585l-1.076,6.278l-4.022-3.487
		c-0.587-0.509-2.878-2.167-7.735-2.167c-9.874,0-15.201,5.668-15.201,11.001c0,8.527,5.479,11.616,11.093,14.048
		c0.762,0.342,1.496,0.643,2.21,0.933c3.519,1.43,7.898,3.209,7.898,7.82c0,3.245-2.818,5.604-6.7,5.604
		c-3.242,0-6.396-2.354-8.167-5.924c-0.408-0.014-0.888-0.021-1.438-0.021c-1.117,0-3.506,0.032-5.895,0.265
		C371.956,230.324,371.998,234.37,372.04,236.525z M385.568,221.21c0.77,0.873,1.56,1.204,1.879,1.204
		c0.125,0,0.239-0.006,0.34-0.02C387.304,222.019,386.422,221.587,385.568,221.21z"/>
</g>
<g>
	<path fill="#FFFFFF" d="M425.646,203.812c0-0.2-6.897-0.1-7.101-0.3c-0.2-0.2,0.2-14.701,0.2-14.701l7.2-0.8
		c0,0,1.1-11.601,1.1-11.801c2.7-1.9,18.001-2.9,18.001-2.9l0.6,15.301l12.604-0.197c0,0,0.7,9.897-0.602,14.698l-13.199,0.7
		c0,0-1.103,16.901,2.697,16.901c3.103,0,7.4-3.103,7.4-3.103l7.2,14.4c0,0-9.2,8.501-20.201,8.501
		C424.946,240.514,425.646,222.913,425.646,203.812z"/>
	<path d="M441.547,243.514c-5.133,0-9.26-1.523-12.266-4.537c-6.571-6.581-6.656-19.041-6.638-32.309
		c-0.188-0.003-0.367-0.005-0.534-0.008c-4.188-0.063-4.727-0.067-5.688-1.028c-1.113-1.113-1.113-1.113-0.678-16.904l0.072-2.608
		l7.373-0.819c0.373-3.958,0.797-8.469,0.854-9.195v-1.451l1.273-0.896c3.06-2.152,14.679-3.123,19.529-3.44l3.073-0.198
		l0.605,15.446l12.51-0.195l0.201,2.833c0.074,1.063,0.693,10.555-0.697,15.693l-0.568,2.1l-12.654,0.671
		c-0.135,4.66,0.172,9.073,0.757,10.901c1.502-0.399,3.56-1.559,4.721-2.391l2.858-2.048l9.781,19.558l-1.652,1.53
		C463.374,234.596,453.584,243.514,441.547,243.514z M421.497,200.651c0.245,0.007,0.482,0.01,0.698,0.014
		c4.021,0.057,6.45,0.092,6.45,3.147l-0.002,2.235c-0.02,12.223-0.033,23.767,4.884,28.688c1.862,1.868,4.486,2.776,8.02,2.776
		c7.068,0,13.48-4.09,16.442-6.312l-4.665-9.33c-1.775,0.928-4.063,1.84-6.177,1.84c-1.196,0-2.332-0.508-3.195-1.43
		c-3.021-3.227-2.862-13.078-2.498-18.666l0.173-2.66l13.511-0.718c0.334-2.668,0.336-6.161,0.254-8.783l-12.628,0.198
		l-0.593-15.117c-4.902,0.425-9.936,1.095-12.297,1.732c-0.148,1.621-0.425,4.575-0.941,10.021l-0.229,2.429l-7.026,0.781
		C421.589,194.985,421.521,198.413,421.497,200.651z"/>
</g>
<g>
	<path fill="#FFFFFF" d="M468.047,224.513l6.601-0.397l0.103-23.504c-0.2-0.197-5.8,0.303-6,0.303c-0.103,0-1.603-12.5-1.603-13.001
		c0-0.5,20.201-3.5,20.201-3.5l3.2,6.8c0,0,3.4-4.8,11.901-4.8c9,0,15.801,7.101,15.701,7.801c-0.2,1.8-10.303,14.201-10.604,13.898
		c-1.3-1.3-4.1-4-7.601-4c-5.2,0-8.7,4.103-8.7,10.104c0,6.5,0.8,9.601,0.8,9.601l10.201,1.303l0.2,13.001
		c-0.5,0.5-33.805,0.197-33.702,0.197C468.747,238.314,467.947,230.914,468.047,224.513z"/>
	<path d="M487.646,241.403c-4.53,0-9.264-0.021-12.859-0.044l-4.38-0.028c-1.813-0.017-4.531-0.036-4.652-2.818
		c-0.108-1.047-0.799-7.917-0.704-14.043l0.043-2.779l6.569-0.396l0.075-17.593c-0.772,0.054-1.522,0.11-1.994,0.148
		c-0.563,0.044-0.938,0.065-0.994,0.065c-2.667,0-2.958-2.223-3.27-4.571c-0.153-1.188-0.354-2.776-0.549-4.38
		c-0.785-6.453-0.785-6.902-0.785-7.05c0-2.666,2.231-3.081,5.609-3.708c1.699-0.315,4.059-0.719,7.016-1.192
		c5.067-0.813,10.138-1.568,10.138-1.568l2.206-0.325l2.472,5.253c2.323-1.492,5.875-2.958,10.864-2.958
		c8.314,0,15.009,5.182,17.385,7.922c0.746,0.857,1.48,1.925,1.285,3.303c-0.079,0.728-0.216,1.964-5.78,9.048
		c-5.836,7.434-6.363,7.435-7.771,7.437l-1.243,0.001l-0.896-0.886c-0.854-0.854-3.122-3.123-5.479-3.123
		c-4.203,0-5.7,3.669-5.7,7.102c0,3.146,0.197,5.439,0.383,6.906l10.577,1.348l0.26,16.872l-0.896,0.896
		C503.468,241.337,503.402,241.403,487.646,241.403z M471.485,235.336c3.528,0.023,9.992,0.064,16.156,0.064
		c6.29,0,9.805-0.044,11.764-0.092l-0.116-7.551l-9.638-1.228l-0.511-1.972c-0.092-0.354-0.895-3.662-0.895-10.35
		c0-7.713,4.812-13.104,11.7-13.104c3.092,0,5.652,1.444,7.449,2.837c2.184-2.571,5.715-7.078,7.219-9.386
		c-1.865-1.751-6.439-5.149-12.167-5.149c-6.688,0-9.37,3.428-9.481,3.57l-2.973,4.197l-4.411-9.472
		c-5.943,0.896-12.014,1.878-15.178,2.475c0.252,2.171,0.632,5.315,0.913,7.526c1.165-0.082,2.238-0.146,2.927-0.146
		c0.551,0,1.696,0,2.622,0.928l0.884,0.885l-0.118,27.563l-6.58,0.399C471.116,230.331,471.318,233.297,471.485,235.336z"/>
</g>
<g>
	<path fill="#FFFFFF" d="M523.547,225.513l8.601-0.397l0.103-20.304c-0.2-0.2-7.8,0.3-8,0.3c-0.103,0-1.603-13.101-1.603-13.601
		s21.104-1.5,27.902,0.1v33.202l8.201,1.303l0.2,12.001c-0.5,0.5-34.802,0.197-34.702,0.197
		C524.247,238.314,523.447,231.914,523.547,225.513z M529.948,171.91c-0.103-6.4,4.5-10.4,9.8-10.4c5.399,0,10.401,4.6,10.401,9.9
		c0,5.397-2.5,10.698-9.304,10.698C533.948,182.11,530.147,178.21,529.948,171.91z"/>
	<path d="M543.713,241.403c-4.667,0-9.54-0.021-13.247-0.044l-4.512-0.028c-1.936-0.018-4.568-0.035-4.703-2.791
		c-0.123-1.033-0.799-7-0.704-13.071l0.044-2.819l8.57-0.396l0.07-14.407c-1.451,0.068-3.084,0.165-3.985,0.218
		c-0.579,0.034-0.954,0.054-1,0.054c-2.683,0-2.967-2.273-3.269-4.684c-0.155-1.243-0.354-2.906-0.551-4.584
		c-0.52-4.473-0.781-6.938-0.781-7.334c0-2.81,2.881-3.114,3.966-3.229c0.873-0.095,2.092-0.186,3.523-0.266
		c3.185-0.177,6.983-0.275,10.431-0.275c6.391,0,10.987,0.317,13.67,0.947l2.313,0.544v33.019l8.158,1.293l0.263,15.792
		l-0.896,0.896C559.946,241.359,559.902,241.403,543.713,241.403z M526.956,235.335c3.612,0.023,10.34,0.065,16.757,0.065
		c6.556,0,10.183-0.045,12.189-0.094l-0.11-6.627l-8.243-1.307v-33.216c-2.399-0.272-5.83-0.418-9.98-0.418
		c-4.646,0-9.013,0.183-11.64,0.362c0.258,2.32,0.64,5.596,0.913,7.854c1.688-0.095,3.692-0.193,4.757-0.193
		c0.735,0,1.85,0,2.773,0.929l0.882,0.887l-0.12,24.396l-8.576,0.399C526.617,231.057,526.798,233.562,526.956,235.335z
		 M540.848,185.11c-8.314,0-13.643-5.021-13.896-13.104c-0.063-3.83,1.249-7.274,3.685-9.749c2.379-2.417,5.616-3.747,9.114-3.747
		c7.139,0,13.401,6.028,13.401,12.9C553.149,179.732,548.321,185.11,540.848,185.11z M539.748,164.509
		c-1.878,0-3.597,0.695-4.839,1.957c-1.318,1.338-1.996,3.205-1.962,5.397c0.149,4.793,2.811,7.245,7.898,7.245
		c5.208,0,6.304-4.188,6.304-7.698C547.149,167.865,543.552,164.509,539.748,164.509z"/>
</g>
<g>
	<path fill="#FFFFFF" d="M564.747,224.914c0.5,0,7.201-0.5,7.201-0.5l-0.2-41.604c0,0-7.8-0.1-7.9-0.3
		c-0.1-0.2,0.3-12.801,0.4-13.101c0.1-0.303,22.401-3.4,22.901-3c2.697,2.1,1.6,26.898,1.6,40.603c0,0,10.4-5.601,10.4-6.201
		c0-0.6-4.199-1.1-4.5-1.6c-0.199-0.5-0.899-10.701-0.899-11.201s31.401,0.4,31.401,1s0.301,12.801,0,13.301
		c-0.299,0.5-6.5-0.397-6.798-0.2c-0.302,0.2-10.002,8-10.399,8.701c-0.399,0.8,14.2,14.3,14.7,14.5s6.5,0.7,6.599,0.8
		c0.1,0.104,0.9,11.901,0.6,12.104c-0.299,0.199-31.399,1.6-31.899,0.3c-0.5-1.397-1.4-12.501-1.2-12.501c0.3,0,3.8-0.6,3.8-0.897
		c-0.6-0.699-10.101-9.5-11.201-8.2c-0.397,0.5-0.3,6.897-0.3,7.501c0,0.5,4.2,1.1,4.2,1.3s-0.4,11.801-0.4,12.301
		s-27.502,0.5-27.502,0.5C565.247,238.314,564.247,224.914,564.747,224.914z"/>
	<path d="M605.415,242.061c-7.232,0-9.237-0.208-10.151-2.193c-0.925,1.148-2.69,1.264-3.405,1.309
		c-0.776,0.049-1.891,0.092-3.225,0.129c-2.299,0.063-5.499,0.113-9.508,0.149c-6.889,0.063-13.778,0.063-13.778,0.063h-1.854
		l-0.829-1.658c-0.274-0.549-0.4-0.799-0.821-7.771c-0.452-7.48-0.211-7.869,0.315-8.721l0.879-1.426l1.709-0.024
		c0.275-0.008,2.068-0.133,4.188-0.287l-0.173-35.857c-6.411-0.104-6.788-0.301-7.597-1.915c-0.773-1.547,0.204-15.299,0.236-15.394
		c0.667-1.997,0.667-1.997,12.717-3.647c3.162-0.433,10.729-1.438,12.71-1.438c0.363,0,1.328,0,2.194,0.69
		c2.212,1.723,2.944,6.01,2.933,21.485c1.151-0.687,3.026-0.687,5.172-0.687c4.01,0,10.909,0.156,17.167,0.396
		c3.193,0.121,5.895,0.25,7.813,0.375c3.376,0.22,6.044,0.396,6.044,3.374c0,0.105,0.008,0.489,0.02,1.063
		c0.248,12.625,0.113,12.847-0.447,13.779c-0.965,1.612-2.758,1.612-3.519,1.612c-1.026,0-2.456-0.128-3.717-0.241
		c-0.363-0.032-0.772-0.066-1.121-0.097c-1.609,1.281-5.163,4.168-7.35,6.021c3.041,3.185,9.819,9.558,11.904,11.343
		c0.785,0.101,2.169,0.24,3.08,0.336c3.305,0.339,3.574,0.364,4.371,1.165c0.896,0.901,0.896,0.901,1.289,7.365
		c0.348,5.727,0.252,6.667,0.221,6.979c-0.133,1.298-0.813,2.008-1.369,2.375c-0.838,0.557-0.9,0.602-10.324,0.975
		C617.657,241.826,610.915,242.061,605.415,242.061z M600.539,235.958c0.94,0.055,2.457,0.103,4.876,0.103
		c6.954,0,16.829-0.396,21.453-0.64c-0.084-1.966-0.25-4.696-0.389-6.615c-0.029-0.003-0.061-0.006-0.092-0.01
		c-3.672-0.376-4.262-0.461-4.853-0.698c-1.286-0.515-15.436-13.604-16.376-16.086c-0.324-0.852-0.287-1.754,0.104-2.54l0.08-0.146
		c0.902-1.577,11.25-9.646,11.345-9.709c0.795-0.532,1.618-0.532,1.932-0.532c0.515,0,1.248,0.063,2.398,0.167
		c0.399,0.036,0.838,0.075,1.268,0.107c0.005-1.527-0.02-3.939-0.086-7.707c-5.23-0.354-18.175-0.784-25.071-0.784
		c-0.065,0-0.132,0-0.194,0c0.139,1.966,0.326,4.482,0.474,6.115c0.011,0.002,0.021,0.008,0.03,0.01
		c2.101,0.503,4.714,1.13,4.714,3.818c0,1.936,0,2.395-11.979,8.842l-4.422,2.384v-5.022c0-2.938,0.05-6.354,0.104-9.977
		c0.13-8.793,0.334-22.926-0.605-27.554c-4.08,0.392-13.814,1.71-18.128,2.409c-0.085,2.169-0.189,5.496-0.246,7.813
		c1.438,0.044,3.271,0.083,4.916,0.104l2.947,0.038l0.228,47.352l-2.791,0.207c-1.499,0.11-3.16,0.232-4.535,0.329
		c0.075,2.202,0.279,5.485,0.449,7.776c8.688-0.015,17.687-0.101,21.848-0.25c0.044-1.332,0.104-3.172,0.187-5.59
		c0.021-0.585,0.038-1.145,0.055-1.646c-2.167-0.516-4.124-1.263-4.124-3.612l-0.002-0.323c-0.063-7.472,0.23-8.14,0.959-9.052
		c0.694-0.822,1.653-1.257,2.685-1.257c3.905,0,13.058,9.281,13.138,9.377l0.725,0.843v1.108c0,2.396-2.146,3.063-3.716,3.403
		C599.991,230.725,600.286,233.956,600.539,235.958z M592.038,222.301c0.168,0.037,0.323,0.071,0.446,0.098
		c0.229,0.053,0.478,0.104,0.73,0.169c-0.397-0.325-0.797-0.646-1.178-0.943C592.039,221.836,592.038,222.063,592.038,222.301z
		 M591.807,200.15c-0.008,0.6-0.016,1.188-0.021,1.768c0.285-0.161,0.564-0.319,0.838-0.478c-0.204-0.191-0.386-0.418-0.546-0.685
		l-0.214-0.432C591.844,200.278,591.826,200.22,591.807,200.15z"/>
</g>
<g>
	<path fill="#FFFFFF" d="M670.245,213.712c6.801-1.5,13.701-1.8,15.701-1.5c1.801,6.8,5.9,10.397,9.1,10.397
		c2.9,0,5.502-1.6,5.502-4.6c0-5.7-6.4-7.5-12.402-10.801c-8.895-4.7-17.5-9.8-17.5-24.104c0-9.898,8.199-18.001,21.605-18.001
		c5.801,0,9.396,2.2,11.102,4l0.699-4.8c0,0,10.402-0.397,15.301,1.7c0.502,0.2-1.199,19.501-1.199,22.701
		c0,1.5-15.602,1.397-15.602,1c-0.5-5.8-3.9-8-7-8c-1.801,0-5.5,0.897-5.5,4.897c0,3.603,7.5,5.803,14.9,10.201
		c8.896,5.2,16.396,10.5,16.396,22.801c0,11.304-9.801,19.804-19.801,19.804c-10.301,0-14.002-3.899-15.502-5.603
		c-0.199,2.2-0.4,6.2-0.5,6.2c-0.5-0.2-15.102-0.9-15.102-0.9C670.245,236.914,670.245,218.913,670.245,213.712z"/>
	<path d="M685.545,243.014h-0.578l-0.213-0.085c-1.521-0.152-8.326-0.525-14.453-0.819l-2.607-0.125l-0.236-2.601
		c-0.145-1.593-0.211-9.75-0.211-25.672v-2.411l2.354-0.519c5.605-1.236,11.215-1.678,14.314-1.678c0.553,0,1.047,0.016,1.479,0.039
		c-7.854-4.19-17.744-10.258-17.744-26.036c0-12.169,10.348-21.001,24.602-21.001c3.768,0,6.672,0.813,8.826,1.815l0.365-2.516
		l2.492-0.1c0,0,0.836-0.033,2.154-0.033c4.488,0,10.639,0.345,14.443,1.976c2.133,0.849,2.043,2.48,1.771,7.333
		c-0.145,2.583-0.377,5.884-0.602,9.077c-0.273,3.875-0.557,7.88-0.557,9.049c0,3.34-2.963,4.255-13.771,4.255
		c-1.205,0-2.336-0.021-3.232-0.062c0.773,0.422,1.559,0.86,2.34,1.326c9.406,5.496,17.867,11.582,17.867,25.38
		c0,13.642-11.791,22.804-22.803,22.804c-6.068,0-10.186-1.292-12.955-2.775C688.315,241.733,687.69,243.014,685.545,243.014z
		 M673.348,236.251c4.607,0.227,7.557,0.392,9.471,0.519c0.074-1.116,0.156-2.319,0.24-3.229l0.631-6.937l4.605,5.224
		c1.104,1.254,4.045,4.584,13.252,4.584c7.947,0,16.801-6.9,16.801-16.804c0-10.672-6.182-15.105-14.914-20.211
		c-2.174-1.292-4.313-2.364-6.383-3.404c-5.59-2.811-10.006-5.026-10.006-9.387c0-5.187,4.277-7.897,8.5-7.897
		c3.967,0,8.184,2.563,9.582,8.227c0.604,0.02,1.354,0.029,2.246,0.029c3.611,0,6.313-0.176,7.854-0.371
		c0.104-1.841,0.287-4.467,0.49-7.354c0.248-3.518,0.594-8.405,0.695-11.024c-2.365-0.574-5.814-0.906-9.771-0.935l-1.227,8.396
		l-4.254-4.509c-0.678-0.718-3.324-3.063-8.92-3.063c-10.951,0-18.602,6.169-18.602,15.001c0,12.115,6.592,16.531,15.902,21.448
		c1.145,0.632,2.299,1.202,3.412,1.752c4.963,2.458,10.588,5.243,10.588,11.701c0,4.404-3.576,7.6-8.502,7.6
		c-4.594,0-9.061-4.223-11.334-10.504c-2.395,0.019-6.297,0.312-10.465,1.063C673.252,227.62,673.299,233.385,673.348,236.251z
		 M688.7,210.892l0.146,0.553c1.475,5.572,4.57,8.168,6.199,8.168c0.418,0,2.5-0.074,2.5-1.6c0-2.476-2.209-3.828-7.25-6.325
		C689.77,211.428,689.239,211.165,688.7,210.892z M693.047,186.528c0.504,0.985,4.135,2.818,6.604,4.062
		c-0.055-0.213-0.09-0.446-0.102-0.701c-0.305-3.291-1.762-5.176-4.004-5.176C694.807,184.71,693.102,184.89,693.047,186.528z"/>
</g>
<g>
	<path fill="#FFFFFF" d="M731.645,203.812c0-0.2-6.9-0.1-7.102-0.3c-0.199-0.2,0.201-14.701,0.201-14.701l7.199-0.8
		c0,0,1.1-11.601,1.1-11.801c2.701-1.9,18.002-2.9,18.002-2.9l0.6,15.301l12.604-0.197c0,0,0.699,9.897-0.602,14.698l-13.199,0.7
		c0,0-1.102,16.901,2.697,16.901c3.102,0,7.4-3.103,7.4-3.103l7.201,14.4c0,0-9.201,8.501-20.201,8.501
		C730.944,240.514,731.645,222.913,731.645,203.812z"/>
	<path d="M747.545,243.514c-5.133,0-9.26-1.523-12.266-4.537c-6.57-6.581-6.656-19.041-6.643-32.309
		c-0.188-0.003-0.367-0.005-0.535-0.008c-4.186-0.063-4.723-0.067-5.684-1.028c-1.113-1.115-1.113-1.115-0.678-16.905l0.072-2.608
		l7.369-0.819c0.373-3.958,0.797-8.469,0.855-9.194v-1.452l1.273-0.896c3.061-2.152,14.68-3.123,19.529-3.44l3.072-0.198
		l0.605,15.446l12.51-0.195l0.201,2.833c0.074,1.063,0.693,10.555-0.697,15.693l-0.568,2.1l-12.656,0.671
		c-0.133,4.66,0.176,9.072,0.762,10.901c1.502-0.4,3.559-1.559,4.721-2.391l2.855-2.048l9.783,19.558l-1.65,1.53
		C769.372,234.596,759.581,243.514,747.545,243.514z M727.495,200.651c0.246,0.007,0.482,0.01,0.699,0.014
		c4.021,0.057,6.449,0.092,6.449,3.147l-0.002,2.235c-0.018,12.222-0.033,23.767,4.883,28.688c1.865,1.868,4.49,2.776,8.021,2.776
		c7.109,0,13.498-4.085,16.445-6.306l-4.668-9.335c-1.775,0.928-4.064,1.84-6.182,1.84c-1.191,0-2.332-0.508-3.191-1.43
		c-3.021-3.227-2.861-13.079-2.498-18.666l0.174-2.66l13.51-0.718c0.334-2.664,0.336-6.16,0.256-8.783l-12.629,0.199l-0.592-15.118
		c-4.902,0.425-9.939,1.095-12.299,1.733c-0.148,1.621-0.424,4.575-0.941,10.021l-0.229,2.429l-7.025,0.781
		C727.586,194.985,727.518,198.413,727.495,200.651z"/>
</g>
<g>
	<path fill="#FFFFFF" d="M771.645,212.512c0-19.001,12.199-24.602,22.4-24.602c8.5,0,14.801,5,14.801,5v-5
		c0,0,21.201-0.7,21.201-0.2s0.701,13.301,0.6,13.301c-0.197,0-7.197,1.5-7.398,1.7c-0.299,0.2,0.201,21.101,0.201,21.101
		c0.1,0,8.299-0.1,8.398,0.604c0.199,0.696,0.199,14-0.201,14c-0.299,0-22.699-0.399-22.699-0.699c0-0.301-1-5.104-1-5.104
		s-4,6.604-14.201,6.604C784.545,239.214,771.645,233.115,771.645,212.512z M805.045,213.012c0-5.3-3.299-9.7-7.4-9.7
		c-5,0-8.299,3.5-8.299,9.5c0,5.8,3.898,9.5,7.9,9.5C801.747,222.313,805.045,218.615,805.045,213.012z"/>
	<path d="M793.745,242.214c-12.494,0-25.102-9.184-25.102-29.702c0-20.351,13.121-27.602,25.402-27.602
		c4.738,0,8.848,1.364,11.801,2.757v-2.66l2.9-0.096c0.473-0.019,11.627-0.381,17.666-0.381c3.707,0,6.635,0,6.635,3.18
		c0.006,0.229,0.08,1.688,0.174,3.537c0.551,10.832,0.551,10.832-0.398,11.831l-0.889,0.933h-1.037
		c-0.754,0.146-3.061,0.641-4.746,1.031c-0.012,3.119,0.092,9.479,0.229,15.769c5.17,0.03,8.027,0.321,8.439,3.175h-0.002
		c0.092,0.647,0.189,2.316,0.156,7.511c-0.051,7.568-0.283,7.882-0.908,8.711l-0.898,1.189l-1.52,0.018
		c-0.203,0-5.98-0.104-11.535-0.238c-2.832-0.069-5.656-0.147-7.773-0.229c-3.537-0.135-5.83-0.222-6.301-2.329
		C803.336,240.478,799.321,242.214,793.745,242.214z M794.045,190.911c-5.832,0-19.4,2.104-19.4,21.602
		c0,22.563,15.91,23.702,19.102,23.702c8.279,0,11.604-5.104,11.635-5.155l3.949-6.516l1.553,7.459
		c0.256,1.226,0.451,2.173,0.6,2.909c4.021,0.173,12.869,0.363,17.434,0.454c0.066-2.434,0.09-6.119,0.053-8.456
		c-0.988-0.06-2.432-0.104-4.434-0.104l-3.977,0.031l-0.104-2.955c-0.541-22.551-0.541-22.551,1.131-23.667l0.02,0.032
		c1.217-0.683,3.855-1.295,5.973-1.708c-0.094-2.085-0.244-5.067-0.344-6.99c-0.02-0.376-0.035-0.714-0.051-1.019
		c-0.23-0.001-0.484-0.004-0.766-0.004c-4.086,0-10.762,0.179-14.566,0.288v8.305l-4.865-3.861
		C806.934,195.224,801.336,190.911,794.045,190.911z M830.647,198.012c-0.328,0-0.639,0.051-0.924,0.146
		C830.284,198.063,830.633,198.012,830.647,198.012z M797.247,225.313c-5.359,0-10.9-4.676-10.9-12.5
		c0-7.477,4.541-12.5,11.299-12.5c5.734,0,10.4,5.697,10.4,12.7C808.045,220.14,803.504,225.313,797.247,225.313z M797.645,206.312
		c-4.609,0-5.299,4.073-5.299,6.5c0,4.069,2.49,6.5,4.9,6.5c2.916,0,4.799-2.473,4.799-6.301
		C802.045,209.443,799.989,206.312,797.645,206.312z"/>
</g>
<g>
	<path fill="#FFFFFF" d="M844.543,203.812c0-0.2-6.9-0.1-7.102-0.3c-0.199-0.2,0.195-14.701,0.195-14.701l7.201-0.8
		c0,0,1.1-11.601,1.1-11.801c2.701-1.9,18.006-2.9,18.006-2.9l0.6,15.301l12.602-0.197c0,0,0.699,9.897-0.6,14.698l-13.201,0.7
		c0,0-1.1,16.901,2.699,16.901c3.102,0,7.4-3.103,7.4-3.103l7.197,14.4c0,0-9.197,8.501-20.197,8.501
		C843.842,240.514,844.543,222.913,844.543,203.812z"/>
	<path d="M860.444,243.514c-5.133,0-9.26-1.523-12.268-4.537c-6.57-6.581-6.654-19.041-6.637-32.309
		c-0.189-0.003-0.367-0.005-0.535-0.008c-4.189-0.063-4.723-0.067-5.684-1.028c-1.113-1.115-1.113-1.115-0.684-16.905l0.072-2.608
		l7.371-0.819c0.373-3.958,0.797-8.469,0.855-9.194v-1.452l1.273-0.896c3.061-2.152,14.68-3.123,19.533-3.44l3.068-0.198
		l0.605,15.446l12.512-0.195l0.199,2.833c0.076,1.063,0.695,10.555-0.697,15.693l-0.564,2.1l-12.656,0.671
		c-0.133,4.66,0.17,9.072,0.756,10.901c1.502-0.4,3.563-1.559,4.721-2.391l2.859-2.048l9.785,19.558l-1.656,1.53
		C882.27,234.596,872.479,243.514,860.444,243.514z M840.393,200.651c0.246,0.007,0.482,0.01,0.699,0.014
		c4.021,0.057,6.451,0.092,6.451,3.147l-0.002,2.235c-0.021,12.222-0.035,23.767,4.883,28.688c1.865,1.868,4.488,2.776,8.021,2.776
		c7.104,0,13.492-4.085,16.439-6.306l-4.668-9.335c-1.775,0.928-4.061,1.84-6.178,1.84c-1.195,0-2.332-0.508-3.195-1.43
		c-3.02-3.227-2.861-13.079-2.498-18.666l0.174-2.66l13.516-0.718c0.334-2.664,0.336-6.16,0.254-8.783l-12.627,0.199l-0.596-15.118
		c-4.9,0.425-9.938,1.095-12.301,1.733c-0.145,1.621-0.424,4.575-0.938,10.021l-0.23,2.429l-7.023,0.781
		C840.485,194.985,840.417,198.413,840.393,200.651z"/>
</g>
<g>
	<path fill="#FFFFFF" d="M889.243,225.513l8.6-0.397l0.1-20.304c-0.193-0.2-7.799,0.3-8,0.3c-0.1,0-1.6-13.101-1.6-13.601
		s21.105-1.5,27.902,0.1v33.202l8.199,1.303l0.199,12.001c-0.5,0.5-34.801,0.197-34.701,0.197
		C889.942,238.314,889.143,231.914,889.243,225.513z M895.643,171.91c-0.1-6.4,4.5-10.4,9.801-10.4c5.4,0,10.4,4.6,10.4,9.9
		c0,5.397-2.5,10.698-9.301,10.698C899.643,182.11,895.842,178.21,895.643,171.91z"/>
	<path d="M909.409,241.403c-4.668,0-9.541-0.021-13.246-0.044l-4.512-0.028c-1.938-0.018-4.57-0.035-4.703-2.791
		c-0.123-1.033-0.801-7-0.705-13.072l0.045-2.818l8.568-0.396l0.07-14.407c-1.451,0.068-3.082,0.165-3.982,0.218
		c-0.58,0.034-0.955,0.054-1.002,0.054c-2.684,0-2.969-2.273-3.27-4.684c-0.154-1.243-0.355-2.906-0.549-4.585
		c-0.521-4.472-0.781-6.938-0.781-7.333c0-2.81,2.881-3.114,3.965-3.229c0.871-0.095,2.092-0.186,3.525-0.266
		c3.182-0.177,6.979-0.275,10.428-0.275c6.393,0,10.99,0.317,13.67,0.947l2.314,0.544v33.019l8.158,1.293l0.262,15.792l-0.898,0.896
		C925.641,241.359,925.598,241.403,909.409,241.403z M892.651,235.335c3.611,0.023,10.34,0.065,16.758,0.065
		c6.555,0,10.182-0.045,12.188-0.094l-0.105-6.627l-8.242-1.307v-33.216c-2.402-0.272-5.83-0.418-9.982-0.418
		c-4.645,0-9.01,0.183-11.637,0.362c0.258,2.32,0.635,5.596,0.912,7.854c1.688-0.095,3.688-0.193,4.756-0.193
		c0.736,0,1.85,0,2.775,0.934l0.879,0.884l-0.119,24.396l-8.574,0.399C892.313,231.057,892.493,233.562,892.651,235.335z
		 M906.543,185.11c-8.316,0-13.643-5.021-13.898-13.104c-0.061-3.829,1.248-7.273,3.686-9.748c2.379-2.417,5.615-3.748,9.113-3.748
		c7.139,0,13.4,6.028,13.4,12.9C918.844,179.732,914.016,185.11,906.543,185.11z M905.444,164.509c-1.879,0-3.598,0.695-4.84,1.957
		c-1.316,1.338-1.996,3.205-1.961,5.396c0.15,4.796,2.811,7.248,7.9,7.248c5.207,0,6.301-4.188,6.301-7.698
		C912.844,167.865,909.249,164.509,905.444,164.509z"/>
</g>
<g>
	<path fill="#FFFFFF" d="M930.842,220.115c4.5-0.803,11.102-0.7,12.4-0.5c1.195,3.8,4,5.801,6.1,5.801c2,0,3.701-0.9,3.701-2.604
		c0-3.197-4.301-4.197-8.301-6c-6-2.6-12.9-6.397-12.9-16.801c0-7,6.5-14.001,18.201-14.001c5.1,0,8.199,1.6,9.699,2.9l0.602-3.5
		c0,0,10-0.303,14.301,1.197c0.4,0.2-1,16.001-1,17.804c0,0.8-13.699-0.2-13.699-0.5c-0.303-3.2-3.102-4.4-5.201-4.4
		c-1.199,0-3.102,0.3-3.102,2.5c0,2,5.602,3.5,10.5,5.9c6.002,2.8,12.502,8.5,12.502,17.398c0,8.104-7.699,14.304-16.502,14.304
		c-9,0-11.699-2.103-13-3.303c-0.199,1.603-0.398,4.104-0.5,4.104c-0.398-0.104-13.602-1.104-13.602-1.104
		C930.842,237.814,930.842,223.013,930.842,220.115z"/>
	<path d="M944.643,243.415l-0.568-0.05c-1.203-0.134-8.668-0.714-13.258-1.063l-2.428-0.184l-0.32-2.413
		c-0.057-0.42-0.227-1.697-0.227-19.599v-2.514l2.477-0.438c2.436-0.436,5.246-0.599,7.291-0.656
		c-4.348-2.859-8.768-7.702-8.768-16.492c0-8.242,7.432-17.001,21.201-17.001c3.125,0,5.578,0.526,7.459,1.223l0.299-1.747
		l2.453-0.071c0,0,0.852-0.026,2.17-0.026c4.205,0,9.91,0.242,13.209,1.392l0.354,0.149c1.938,0.969,1.852,2.454,1.59,6.862
		c-0.135,2.295-0.352,5.22-0.541,7.806c-0.184,2.473-0.391,5.276-0.391,5.816c0,3.303-3.598,3.303-5.529,3.304
		c-0.949,0-2.131-0.033-3.426-0.092c6.299,4.328,9.955,10.69,9.955,17.688c0,9.54-8.748,17.301-19.502,17.301
		c-4.955,0-8.289-0.605-10.639-1.463C947.129,242.451,946.383,243.415,944.643,243.415z M933.936,236.525
		c3.893,0.3,6.428,0.499,8.092,0.64c0.047-0.431,0.094-0.852,0.141-1.226l0.727-5.788l4.285,3.959
		c0.742,0.688,2.709,2.505,10.965,2.505c7.443,0,13.5-5.068,13.5-11.303c0-8.716-7.525-13.171-10.77-14.682
		c-1.418-0.695-2.859-1.297-4.254-1.879c-4.457-1.862-7.979-3.333-7.979-6.74c0-3.341,2.396-5.5,6.102-5.5
		c3.035,0,6.254,1.614,7.59,4.729c2.119,0.2,5.82,0.454,8.459,0.477c0.064-0.949,0.15-2.131,0.258-3.563
		c0.199-2.717,0.498-6.764,0.617-9.182c-2.131-0.357-5.219-0.569-8.791-0.585l-1.076,6.277l-4.02-3.486
		c-0.59-0.509-2.881-2.167-7.734-2.167c-9.873,0-15.201,5.668-15.201,11.001c0,8.527,5.48,11.616,11.094,14.048
		c0.766,0.342,1.496,0.643,2.211,0.934c3.521,1.43,7.896,3.209,7.896,7.819c0,3.245-2.818,5.604-6.701,5.604
		c-3.242,0-6.395-2.354-8.166-5.924c-0.408-0.014-0.887-0.021-1.438-0.021c-1.117,0-3.508,0.032-5.896,0.265
		C933.852,230.324,933.895,234.37,933.936,236.525z M947.463,221.209c0.771,0.874,1.561,1.204,1.879,1.204
		c0.127,0,0.24-0.006,0.342-0.02C949.2,222.019,948.317,221.586,947.463,221.209z"/>
</g>
<line fill="none" stroke="#000000" stroke-width="4.5668" stroke-miterlimit="10" x1="261.855" y1="135.46" x2="989.505" y2="135.46"/>
<g>
	<g>
		<g>
			<path fill="#FFFFFF" d="M464.547,105.56c0.6-0.3,8.601-1,8.601-1s-0.4-39.502-0.7-39.903c-0.3-0.4-8.4-0.8-8.4-0.8
				s0.1-13.201,1.4-15.701c0,0,51.604,0.6,52.104,0.9c0.5,0.3,1.1,20.901,1.1,20.901s-13.301,2.8-13.9,2
				c-0.6-0.8-1.1-6.801-1.1-6.801l-10.901-0.1c0,0,0.3,12.5,0.5,12.5s10.101,1,10.101,1.3c0,0.3-0.3,14.401-0.5,14.401
				s-9.9,0.2-10.101,0.2s0.2,10.201,0.5,10.501c0.3,0.3,9.301,0.3,9.301,0.6c0,0.3,2,14.201,1.9,14.301
				c-0.1,0.1-39.802,0.3-39.802,0.3C464.447,118.361,463.947,105.86,464.547,105.56z"/>
			<path d="M461.918,122.674l-0.667-2.664c-0.289-1.154-0.429-6.665-0.454-7.757c-0.154-6.702-0.097-8.685,2.185-9.824
				c0.526-0.264,1.029-0.515,6.631-1.06c-0.126-11.749-0.336-27.505-0.511-33.676c-1.506-0.126-3.49-0.255-5.229-0.341l-3.353-0.166
				l0.025-3.356c0.04-5.245,0.326-14.464,1.794-17.289l0.993-1.911l2.153,0.025c52.552,0.611,52.778,0.747,53.865,1.4
				c2.02,1.211,2.141,1.284,2.796,23.799l0.085,2.924l-2.862,0.603c-1.76,0.371-10.7,2.219-13.853,2.219
				c-0.217,0.005-0.725,0-1.273-0.118c1.311,0.442,2.604,1.343,2.604,3.375c0,0.221-0.079,3.951-0.176,7.411
				c-0.05,1.8-0.107,3.59-0.164,4.93c-0.1,2.346-0.236,5.56-3.66,5.56c-0.189,0.002-2.585,0.051-4.98,0.099
				c-0.55,0.011-1.099,0.022-1.624,0.033c0.042,1.237,0.105,2.639,0.174,3.812c0.57,0.021,1.152,0.041,1.646,0.057
				c1.182,0.039,2.36,0.078,3.242,0.126c1.146,0.063,4.578,0.25,4.736,3.441c0.061,0.497,0.337,2.487,0.605,4.416
				c1.569,11.299,1.569,11.299,0.275,12.593c-1.051,1.047-1.051,1.047-8.705,1.114c-3.739,0.032-8.714,0.067-13.686,0.099
				c-9.94,0.063-19.868,0.112-19.868,0.112L461.918,122.674z M467.758,108.608c-0.017,1.981,0.058,4.855,0.151,7.036
				c11.463-0.06,25.884-0.147,32.594-0.215c-0.252-1.863-0.56-4.078-0.789-5.722c-0.103-0.739-0.189-1.364-0.263-1.895
				c-0.559-0.021-1.131-0.04-1.615-0.056c-5.259-0.172-5.935-0.194-7.061-1.319c-1.052-1.053-1.201-1.826-1.454-7.521
				c-0.255-5.731-0.109-6.083,0.182-6.785l0.896-2.159l2.35-0.014c0.189-0.002,2.584-0.051,4.979-0.099
				c0.622-0.013,1.244-0.025,1.83-0.037c0.085-2.358,0.172-5.649,0.229-8.035c-2.466-0.308-5.891-0.666-6.699-0.733
				c-3.25-0.103-3.404-3.337-3.498-5.283c-0.057-1.188-0.114-2.771-0.165-4.353c-0.101-3.139-0.176-6.278-0.176-6.278l-0.087-3.617
				l17.709,0.162l0.266,3.18c0.102,1.218,0.245,2.501,0.387,3.544c2.018-0.27,4.917-0.786,7.536-1.297
				c-0.186-5.731-0.426-11.493-0.635-14.705c-7.663-0.214-29.745-0.522-46.242-0.719c-0.263,2.108-0.471,5.488-0.573,8.86
				c6.168,0.391,6.739,0.812,7.637,2.009c0.933,1.243,0.988,1.318,1.4,41.967l0.033,3.24l-3.228,0.283
				C471.534,108.214,469.36,108.427,467.758,108.608z M496.535,74.371c1.176,0.126,2.217,0.245,2.239,0.247
				c1.289,0.148,2.571,0.307,3.531,0.447c0.37,0.054,0.841,0.123,1.338,0.245c-0.587-0.217-1.2-0.594-1.693-1.252
				c-0.395-0.526-0.956-1.274-1.467-5.429l-4.14-0.038C496.404,70.761,496.472,72.826,496.535,74.371z M493.249,74.058
				c0.076,0,0.229,0.01,0.436,0.027C493.542,74.067,493.397,74.058,493.249,74.058z"/>
		</g>
		<g>
			<path fill="#FFFFFF" d="M525.747,105.36l8.601-0.4l0.1-20.301c-0.2-0.2-7.8,0.3-8,0.3c-0.1,0-1.6-13.101-1.6-13.601
				s21.102-1.5,27.902,0.1v33.202l8.201,1.3l0.2,12c-0.5,0.5-34.802,0.2-34.702,0.2C526.446,118.16,525.646,111.76,525.747,105.36z
				 M532.147,51.756c-0.1-6.4,4.5-10.4,9.8-10.4c5.4,0,10.401,4.6,10.401,9.9c0,5.4-2.5,10.701-9.301,10.701
				C536.147,61.957,532.347,58.057,532.147,51.756z"/>
			<path d="M545.913,121.749c-4.668,0-9.542-0.021-13.25-0.044l-4.513-0.031c-1.771-0.014-5.028-0.038-5.197-3.247
				c-0.13-1.088-0.801-7.053-0.706-13.122l0.051-3.289l8.565-0.398l0.066-13.405c-1.301,0.065-2.66,0.146-3.453,0.192
				c-0.595,0.036-0.982,0.053-1.03,0.053c-3.124,0-3.465-2.72-3.765-5.12c-0.156-1.245-0.354-2.909-0.549-4.589
				c-0.786-6.77-0.786-7.221-0.786-7.392c0-3.26,3.321-3.611,4.413-3.726c0.88-0.093,2.108-0.185,3.551-0.265
				c3.191-0.178,7.001-0.279,10.456-0.279c6.429,0,11.067,0.324,13.785,0.964l2.698,0.635v32.985l8.151,1.292l0.273,16.423
				l-1.049,1.049C562.333,121.725,562.309,121.749,545.913,121.749z M529.614,114.685c3.715,0.026,10.181,0.065,16.299,0.065
				c6.058,0,9.604-0.039,11.681-0.083l-0.095-5.711l-8.25-1.308V74.454c-2.349-0.239-5.593-0.367-9.483-0.367
				c-4.318,0-8.43,0.161-11.083,0.33c0.235,2.105,0.549,4.812,0.797,6.863c1.584-0.086,3.339-0.168,4.318-0.168
				c0.768,0,2.054,0,3.127,1.076l1.029,1.032l-0.123,25.083l-8.562,0.398C529.332,110.963,529.477,113.074,529.614,114.685z
				 M543.047,65.457c-8.616,0-14.133-5.208-14.398-13.59c-0.063-3.972,1.297-7.544,3.828-10.115
				c2.474-2.513,5.837-3.896,9.471-3.896c7.405,0,13.901,6.262,13.901,13.4C555.848,59.883,550.824,65.457,543.047,65.457z
				 M541.947,44.856c-1.743,0-3.335,0.642-4.482,1.807c-1.222,1.241-1.851,2.983-1.818,5.039c0.144,4.527,2.565,6.755,7.401,6.755
				c4.794,0,5.801-3.916,5.801-7.201C548.848,47.966,545.495,44.856,541.947,44.856z"/>
		</g>
		<g>
			<path fill="#FFFFFF" d="M567.346,99.959c4.5-0.8,11.101-0.7,12.4-0.5c1.2,3.8,4,5.8,6.101,5.8c2,0,3.7-0.9,3.7-2.6
				c0-3.2-4.3-4.2-8.301-6c-6-2.6-12.9-6.4-12.9-16.801c0-7,6.5-14.001,18.201-14.001c5.1,0,8.2,1.6,9.7,2.9l0.6-3.5
				c0,0,10-0.3,14.301,1.2c0.399,0.2-1,16.001-1,17.801c0,0.8-13.701-0.2-13.701-0.5c-0.3-3.2-3.1-4.4-5.2-4.4
				c-1.2,0-3.1,0.3-3.1,2.5c0,2,5.6,3.5,10.5,5.9c6,2.8,12.501,8.5,12.501,17.401c0,8.101-7.701,14.301-16.501,14.301
				c-9,0-11.701-2.1-13-3.3c-0.2,1.6-0.4,4.1-0.5,4.1c-0.4-0.1-13.601-1.1-13.601-1.1C567.346,117.66,567.346,102.86,567.346,99.959
				z"/>
			<path d="M581.147,123.761h-0.431l-0.224-0.057c-1.289-0.137-8.67-0.71-13.21-1.054l-2.831-0.215l-0.375-2.813
				c-0.063-0.473-0.23-1.73-0.23-19.663v-2.933l2.888-0.513c1.91-0.34,4.044-0.515,5.868-0.605
				c-4.017-3.006-7.755-7.848-7.755-16.05c0-8.484,7.606-17.501,21.701-17.501c2.886,0,5.218,0.441,7.065,1.055l0.269-1.567
				l2.861-0.087c0,0,0.857-0.026,2.186-0.026c4.244,0,10.008,0.246,13.373,1.42l0.416,0.176c2.23,1.118,2.13,2.811,1.862,7.335
				c-0.136,2.295-0.352,5.222-0.542,7.811c-0.182,2.466-0.388,5.261-0.388,5.785c0,3.803-4.226,3.803-6.031,3.804
				c-0.536,0-1.146-0.01-1.808-0.03c5.614,4.375,8.838,10.47,8.838,17.127c0,9.815-8.973,17.801-20.001,17.801
				c-4.691,0-7.966-0.543-10.336-1.329C583.836,122.847,582.948,123.761,581.147,123.761z M570.931,115.908
				c3.282,0.251,5.563,0.431,7.156,0.563c0.029-0.26,0.058-0.512,0.087-0.745l0.846-6.756l5.002,4.619
				c0.635,0.586,2.568,2.372,10.626,2.372c7.169,0,13.001-4.845,13.001-10.801c0-8.428-7.33-12.759-10.481-14.229
				c-1.415-0.692-2.849-1.292-4.236-1.871c-4.445-1.857-8.284-3.461-8.284-7.201c0-2.986,2.041-6,6.6-6
				c3.131,0,6.445,1.624,7.928,4.758c2,0.184,5.18,0.398,7.655,0.439c0.06-0.854,0.136-1.879,0.225-3.096
				c0.188-2.551,0.464-6.286,0.594-8.719c-1.983-0.297-4.712-0.476-7.848-0.503l-1.154,6.734l-4.693-4.068
				c-0.554-0.479-2.723-2.045-7.408-2.045c-9.549,0-14.701,5.41-14.701,10.501c0,7.454,3.957,10.627,10.792,13.589
				c0.763,0.343,1.491,0.638,2.2,0.926c3.658,1.486,8.209,3.336,8.209,8.286c0,3.535-3.028,6.1-7.2,6.1
				c-3.347,0-6.596-2.347-8.476-5.931c-0.334-0.006-0.711-0.011-1.128-0.011c-1.038,0-3.184,0.028-5.395,0.221
				C570.856,109.847,570.893,113.715,570.931,115.908z"/>
		</g>
		<g>
			<path fill="#FFFFFF" d="M618.346,105.36l8.601-0.4l0.1-20.301c-0.2-0.2-7.8,0.3-8,0.3c-0.101,0-1.601-13.101-1.601-13.601
				s21.102-1.5,27.902,0.1v33.202l8.2,1.3l0.2,12c-0.5,0.5-34.803,0.2-34.702,0.2C619.046,118.16,618.246,111.76,618.346,105.36z
				 M624.747,51.756c-0.101-6.4,4.5-10.4,9.801-10.4c5.4,0,10.4,4.6,10.4,9.9c0,5.4-2.5,10.701-9.301,10.701
				C628.747,61.957,624.947,58.057,624.747,51.756z"/>
			<path d="M638.512,121.749c-4.668,0-9.542-0.021-13.249-0.044l-4.513-0.031c-1.771-0.014-5.027-0.038-5.197-3.247
				c-0.13-1.088-0.802-7.054-0.707-13.123l0.052-3.288l8.564-0.398l0.066-13.405c-1.301,0.065-2.66,0.146-3.453,0.192
				c-0.595,0.036-0.982,0.053-1.03,0.053c-3.125,0-3.465-2.72-3.766-5.12c-0.156-1.244-0.354-2.909-0.549-4.589
				c-0.786-6.768-0.786-7.221-0.786-7.392c0-3.26,3.321-3.611,4.413-3.726c0.88-0.093,2.108-0.185,3.551-0.265
				c3.191-0.178,7.001-0.279,10.456-0.279c6.43,0,11.067,0.324,13.785,0.964l2.698,0.635v32.985l8.15,1.292l0.274,16.422l-1.05,1.05
				C654.933,121.725,654.909,121.749,638.512,121.749z M622.214,114.685c3.713,0.026,10.177,0.065,16.298,0.065
				c6.058,0,9.604-0.039,11.681-0.083l-0.095-5.711l-8.25-1.308V74.454c-2.349-0.239-5.594-0.367-9.483-0.367
				c-4.318,0-8.43,0.161-11.083,0.33c0.235,2.105,0.549,4.813,0.797,6.863c1.584-0.086,3.339-0.168,4.317-0.168
				c0.768,0,2.052,0,3.124,1.072l1.032,1.032l-0.123,25.086l-8.561,0.398C621.932,110.961,622.077,113.073,622.214,114.685z
				 M635.647,65.457c-8.615,0-14.132-5.207-14.398-13.589c-0.063-3.972,1.296-7.544,3.827-10.115
				c2.474-2.513,5.837-3.897,9.472-3.897c7.405,0,13.9,6.262,13.9,13.4C648.448,59.883,643.423,65.457,635.647,65.457z
				 M634.547,44.856c-1.744,0-3.336,0.642-4.483,1.808c-1.222,1.241-1.851,2.983-1.817,5.038c0.144,4.528,2.565,6.756,7.4,6.756
				c4.794,0,5.801-3.916,5.801-7.201C641.448,47.966,638.094,44.856,634.547,44.856z"/>
		</g>
		<g>
			<path fill="#FFFFFF" d="M659.545,104.76c0.5,0,7.2-0.5,7.2-0.5l-0.199-41.603c0,0-7.801-0.1-7.901-0.3
				c-0.1-0.2,0.301-12.801,0.4-13.101c0.101-0.3,22.401-3.4,22.901-3c2.7,2.1,1.601,26.901,1.601,40.603c0,0,10.4-5.601,10.4-6.201
				s-4.2-1.1-4.5-1.6c-0.2-0.5-0.9-10.701-0.9-11.201s31.402,0.4,31.402,1c0,0.6,0.3,12.801,0,13.301
				c-0.301,0.5-6.501-0.4-6.801-0.2s-10.001,8-10.4,8.701c-0.4,0.8,14.2,14.301,14.7,14.5c0.5,0.2,6.501,0.7,6.601,0.8
				c0.101,0.1,0.9,11.901,0.601,12.101c-0.301,0.2-31.402,1.6-31.902,0.3c-0.5-1.4-1.4-12.501-1.2-12.501c0.3,0,3.801-0.6,3.801-0.9
				c-0.601-0.7-10.101-9.5-11.201-8.201c-0.4,0.5-0.3,6.9-0.3,7.5c0,0.5,4.2,1.1,4.2,1.3c0,0.2-0.4,11.801-0.4,12.301
				s-27.501,0.5-27.501,0.5C660.045,118.16,659.045,104.76,659.545,104.76z"/>
			<path d="M700.215,122.407c-6.416,0-9.034-0.097-10.276-1.9c-0.679,0.527-1.711,0.913-3.251,1.012
				c-0.783,0.05-1.901,0.093-3.242,0.13c-2.303,0.063-5.505,0.113-9.518,0.149c-6.891,0.063-13.782,0.063-13.782,0.063h-2.158
				l-0.97-1.929c-0.335-0.667-0.448-0.892-0.875-7.97c-0.462-7.637-0.213-8.04,0.387-9.013l1.025-1.663l1.99-0.027
				c0.256-0.009,1.795-0.115,3.685-0.251l-0.167-34.901c-6.093-0.113-6.635-0.371-7.544-2.175c-0.473-0.95-0.473-0.95-0.247-8.197
				c0.214-6.866,0.265-7.017,0.451-7.581c0.715-2.129,2.142-2.352,5.956-2.949c1.922-0.3,4.468-0.67,7.17-1.04
				c3.171-0.435,10.765-1.445,12.778-1.445c0.411,0,1.502,0,2.506,0.802c2.339,1.819,3.114,5.887,3.122,21.112
				c1.268-0.423,2.946-0.423,4.671-0.423c4.016,0,10.922,0.159,17.187,0.396c3.196,0.121,5.903,0.251,7.826,0.376
				c3.349,0.218,6.511,0.424,6.511,3.873c0.001,0.106,0.009,0.487,0.02,1.051c0.25,12.768,0.118,12.989-0.517,14.049
				c-1.116,1.854-3.177,1.854-3.952,1.854c-1.05,0-2.49-0.129-3.762-0.243c-0.285-0.025-0.615-0.055-0.919-0.08
				c-1.564,1.25-4.66,3.768-6.775,5.549c3.106,3.202,9.281,9,11.388,10.823c0.79,0.098,2.062,0.228,2.912,0.315
				c3.333,0.342,3.761,0.386,4.686,1.314c1.023,1.019,1.023,1.019,1.428,7.673c0.35,5.746,0.253,6.728,0.222,7.05
				c-0.147,1.504-0.945,2.331-1.589,2.76c-0.966,0.642-1.023,0.681-10.585,1.059C712.473,122.173,705.725,122.407,700.215,122.407z
				 M695.782,115.325c0.941,0.045,2.349,0.082,4.434,0.082c6.8,0,16.168-0.368,20.93-0.613c-0.081-1.756-0.216-3.976-0.335-5.688
				c-3.445-0.355-4.034-0.446-4.662-0.698c-1.371-0.547-15.641-13.698-16.657-16.372c-0.375-0.985-0.329-2.031,0.128-2.944
				l0.09-0.167c0.98-1.72,11.402-9.814,11.497-9.877c0.927-0.619,1.859-0.619,2.211-0.619c0.537,0,1.279,0.064,2.446,0.168
				c0.231,0.021,0.475,0.042,0.722,0.064c-0.002-1.459-0.023-3.594-0.078-6.694c-5.379-0.343-17.514-0.742-24.239-0.755
				c0.123,1.721,0.275,3.747,0.402,5.215c2.111,0.513,4.778,1.295,4.778,4.23c0,2.414-1.616,3.331-6.973,6.37
				c-2.635,1.494-5.269,2.913-5.269,2.913l-5.159,2.778v-5.86c0-2.941,0.05-6.361,0.103-9.981
				c0.124-8.501,0.321-22.058-0.519-27.003c-4.131,0.422-12.924,1.614-17.234,2.297c-0.076,1.999-0.163,4.774-0.217,6.897
				c1.346,0.038,2.956,0.07,4.411,0.089l3.438,0.044l0.231,48.306l-3.255,0.243c-1.608,0.12-2.962,0.219-4.058,0.297
				c0.081,2.013,0.25,4.732,0.399,6.811c8.288-0.017,16.679-0.101,20.896-0.234c0.041-1.233,0.096-2.897,0.171-5.126
				c0.015-0.431,0.028-0.846,0.042-1.235c-2.141-0.552-4.11-1.448-4.11-4.002l-0.002-0.319c-0.065-7.563,0.224-8.313,1.069-9.369
				c0.798-0.944,1.896-1.443,3.072-1.443c4.171,0,13.436,9.458,13.518,9.553l0.844,0.983v1.295c0,2.54-2.069,3.389-3.686,3.792
				C695.313,110.77,695.559,113.462,695.782,115.325z"/>
		</g>
		<g>
			<path fill="#FFFFFF" d="M729.344,92.359c0-19.001,12.201-24.602,22.401-24.602c8.5,0,14.801,5,14.801,5v-5
				c0,0,21.201-0.7,21.201-0.2s0.7,13.301,0.601,13.301c-0.2,0-7.201,1.5-7.4,1.7c-0.301,0.2,0.199,21.101,0.199,21.101
				c0.101,0,8.301-0.1,8.4,0.6c0.2,0.7,0.2,14.001-0.199,14.001c-0.301,0-22.702-0.4-22.702-0.7c0-0.3-1-5.1-1-5.1s-4,6.6-14.2,6.6
				C742.245,119.06,729.344,112.96,729.344,92.359z M762.747,92.859c0-5.3-3.301-9.7-7.4-9.7c-5.001,0-8.301,3.5-8.301,9.5
				c0,5.8,3.9,9.5,7.9,9.5C759.446,102.159,762.747,98.459,762.747,92.859z"/>
			<path d="M751.446,122.561c-12.743,0-25.602-9.339-25.602-30.202c0-20.719,13.38-28.102,25.901-28.102
				c4.452,0,8.359,1.186,11.301,2.482v-2.368l3.385-0.112c0.472-0.016,11.636-0.382,17.683-0.382c3.669,0,7.134,0,7.134,3.68
				c0.007,0.232,0.082,1.69,0.175,3.531c0.561,11.027,0.561,11.027-0.536,12.181l-1.035,1.089l-1.205,0
				c-0.742,0.144-2.709,0.567-4.295,0.929c-0.002,3.123,0.09,8.964,0.217,14.875c5.145,0.049,7.995,0.442,8.444,3.605h-0.001
				c0.1,0.7,0.196,2.406,0.163,7.579c-0.05,7.736-0.292,8.057-1.009,9.007l-1.05,1.393l-1.768,0.016
				c-0.205,0-5.991-0.104-11.549-0.239c-2.837-0.069-5.663-0.147-7.781-0.228c-3.208-0.122-5.701-0.216-6.554-2.055
				C760.709,121.004,756.771,122.561,751.446,122.561z M751.746,71.257c-5.683,0-18.901,2.056-18.901,21.102
				c0,22.083,15.495,23.202,18.602,23.202c8.005,0,11.177-4.865,11.207-4.914l4.606-7.602l1.813,8.702
				c0.213,1.022,0.384,1.852,0.521,2.529c4.013,0.163,12.006,0.339,16.534,0.428c0.055-2.246,0.064-5.316,0.038-7.473
				c-0.945-0.043-2.233-0.076-3.929-0.076l-4.467,0.036l-0.122-3.447c-0.546-22.832-0.546-22.832,1.364-24.101l0.025,0.039
				c1.233-0.688,3.653-1.285,5.717-1.7c-0.095-2.042-0.231-4.751-0.322-6.538c-0.011-0.199-0.02-0.387-0.029-0.565
				c-0.093,0-0.189,0-0.289,0c-3.911,0-10.202,0.163-14.067,0.274v8.852l-5.676-4.504C764.328,75.466,758.851,71.257,751.746,71.257
				z M788.348,77.358c-0.377,0-0.732,0.058-1.061,0.161C787.927,77.415,788.333,77.358,788.348,77.358z M754.946,105.659
				c-5.604,0-11.4-4.863-11.4-13c0-7.776,4.742-13,11.801-13c6.011,0,10.9,5.921,10.9,13.2
				C766.247,100.276,761.494,105.659,754.946,105.659z M755.346,86.658c-3.968,0-4.801,3.263-4.801,6c0,3.756,2.237,6,4.4,6
				c2.612,0,4.301-2.277,4.301-5.801C759.247,89.205,757.191,86.658,755.346,86.658z"/>
		</g>
	</g>
</g>
</svg>
